<mxfile host="Electron" agent="Mozilla/5.0 (Windows NT 10.0; Win64; x64) AppleWebKit/537.36 (KHTML, like Gecko) draw.io/25.0.2 Chrome/128.0.6613.186 Electron/32.2.5 Safari/537.36" version="25.0.2" pages="3">
  <diagram name="main" id="Fi0VqpX_wtVSKBghQ9A4">
    <mxGraphModel dx="1290" dy="717" grid="1" gridSize="10" guides="1" tooltips="1" connect="1" arrows="1" fold="1" page="1" pageScale="1" pageWidth="827" pageHeight="1169" math="0" shadow="0">
      <root>
        <mxCell id="0" />
        <mxCell id="1" parent="0" />
        <mxCell id="B6GJMlLM4s9sf8NHCPqx-1" value="" style="edgeStyle=orthogonalEdgeStyle;rounded=0;orthogonalLoop=1;jettySize=auto;html=1;" edge="1" parent="1" source="B6GJMlLM4s9sf8NHCPqx-2" target="B6GJMlLM4s9sf8NHCPqx-4">
          <mxGeometry relative="1" as="geometry" />
        </mxCell>
        <mxCell id="B6GJMlLM4s9sf8NHCPqx-2" value="Начало" style="ellipse;whiteSpace=wrap;html=1;" vertex="1" parent="1">
          <mxGeometry x="340" y="40" width="120" height="40" as="geometry" />
        </mxCell>
        <mxCell id="B6GJMlLM4s9sf8NHCPqx-3" value="" style="edgeStyle=orthogonalEdgeStyle;rounded=0;orthogonalLoop=1;jettySize=auto;html=1;" edge="1" parent="1" source="B6GJMlLM4s9sf8NHCPqx-4" target="B6GJMlLM4s9sf8NHCPqx-8">
          <mxGeometry relative="1" as="geometry" />
        </mxCell>
        <mxCell id="B6GJMlLM4s9sf8NHCPqx-4" value="int main()" style="shape=process;whiteSpace=wrap;html=1;backgroundOutline=1;" vertex="1" parent="1">
          <mxGeometry x="340" y="120" width="120" height="40" as="geometry" />
        </mxCell>
        <mxCell id="B6GJMlLM4s9sf8NHCPqx-5" value="" style="endArrow=none;dashed=1;html=1;rounded=0;" edge="1" parent="1" target="B6GJMlLM4s9sf8NHCPqx-6">
          <mxGeometry width="50" height="50" relative="1" as="geometry">
            <mxPoint x="400" y="100" as="sourcePoint" />
            <mxPoint x="520" y="100" as="targetPoint" />
          </mxGeometry>
        </mxCell>
        <mxCell id="B6GJMlLM4s9sf8NHCPqx-6" value="&lt;div&gt;#include &amp;lt;iostream&amp;gt;&lt;/div&gt;&lt;div&gt;#include &amp;lt;clocale&amp;gt;&lt;/div&gt;&lt;div&gt;#include &amp;lt;string&amp;gt;&lt;/div&gt;&lt;div&gt;using namespace std;&lt;/div&gt;&lt;div&gt;&lt;br&gt;&lt;/div&gt;&lt;div&gt;int* build_table(string obraz);&lt;/div&gt;&lt;div&gt;int KMP_search(string str, string obraz, int* table);&lt;/div&gt;" style="strokeWidth=2;html=1;shape=mxgraph.flowchart.annotation_1;align=left;pointerEvents=1;" vertex="1" parent="1">
          <mxGeometry x="520" y="40" width="50" height="120" as="geometry" />
        </mxCell>
        <mxCell id="B6GJMlLM4s9sf8NHCPqx-7" value="" style="edgeStyle=orthogonalEdgeStyle;rounded=0;orthogonalLoop=1;jettySize=auto;html=1;" edge="1" parent="1" source="B6GJMlLM4s9sf8NHCPqx-8" target="B6GJMlLM4s9sf8NHCPqx-11">
          <mxGeometry relative="1" as="geometry" />
        </mxCell>
        <mxCell id="B6GJMlLM4s9sf8NHCPqx-8" value="setlocale(LC_ALL, &quot;RU&quot;);" style="whiteSpace=wrap;html=1;" vertex="1" parent="1">
          <mxGeometry x="330" y="200" width="140" height="40" as="geometry" />
        </mxCell>
        <mxCell id="B6GJMlLM4s9sf8NHCPqx-9" value="{" style="text;html=1;align=center;verticalAlign=middle;resizable=0;points=[];autosize=1;strokeColor=none;fillColor=none;" vertex="1" parent="1">
          <mxGeometry x="370" y="160" width="30" height="30" as="geometry" />
        </mxCell>
        <mxCell id="B6GJMlLM4s9sf8NHCPqx-10" value="" style="edgeStyle=orthogonalEdgeStyle;rounded=0;orthogonalLoop=1;jettySize=auto;html=1;" edge="1" parent="1" source="B6GJMlLM4s9sf8NHCPqx-11" target="B6GJMlLM4s9sf8NHCPqx-13">
          <mxGeometry relative="1" as="geometry" />
        </mxCell>
        <mxCell id="B6GJMlLM4s9sf8NHCPqx-11" value="system(&quot;chcp 1251&quot;);" style="whiteSpace=wrap;html=1;" vertex="1" parent="1">
          <mxGeometry x="330" y="260" width="140" height="40" as="geometry" />
        </mxCell>
        <mxCell id="B6GJMlLM4s9sf8NHCPqx-12" value="" style="edgeStyle=orthogonalEdgeStyle;rounded=0;orthogonalLoop=1;jettySize=auto;html=1;" edge="1" parent="1" source="B6GJMlLM4s9sf8NHCPqx-13" target="B6GJMlLM4s9sf8NHCPqx-15">
          <mxGeometry relative="1" as="geometry" />
        </mxCell>
        <mxCell id="B6GJMlLM4s9sf8NHCPqx-13" value="system(&quot;cls&quot;);" style="whiteSpace=wrap;html=1;" vertex="1" parent="1">
          <mxGeometry x="330" y="320" width="140" height="40" as="geometry" />
        </mxCell>
        <mxCell id="B6GJMlLM4s9sf8NHCPqx-14" value="" style="edgeStyle=orthogonalEdgeStyle;rounded=0;orthogonalLoop=1;jettySize=auto;html=1;" edge="1" parent="1" source="B6GJMlLM4s9sf8NHCPqx-15" target="B6GJMlLM4s9sf8NHCPqx-17">
          <mxGeometry relative="1" as="geometry" />
        </mxCell>
        <mxCell id="B6GJMlLM4s9sf8NHCPqx-15" value="string str, obraz;" style="whiteSpace=wrap;html=1;" vertex="1" parent="1">
          <mxGeometry x="330" y="380" width="140" height="40" as="geometry" />
        </mxCell>
        <mxCell id="B6GJMlLM4s9sf8NHCPqx-16" value="" style="edgeStyle=orthogonalEdgeStyle;rounded=0;orthogonalLoop=1;jettySize=auto;html=1;" edge="1" parent="1" source="B6GJMlLM4s9sf8NHCPqx-17" target="B6GJMlLM4s9sf8NHCPqx-19">
          <mxGeometry relative="1" as="geometry" />
        </mxCell>
        <mxCell id="B6GJMlLM4s9sf8NHCPqx-17" value="cout &amp;lt;&amp;lt; &quot;Введите строку: &quot;;" style="shape=parallelogram;perimeter=parallelogramPerimeter;whiteSpace=wrap;html=1;fixedSize=1;" vertex="1" parent="1">
          <mxGeometry x="305" y="440" width="190" height="40" as="geometry" />
        </mxCell>
        <mxCell id="B6GJMlLM4s9sf8NHCPqx-18" value="" style="edgeStyle=orthogonalEdgeStyle;rounded=0;orthogonalLoop=1;jettySize=auto;html=1;" edge="1" parent="1" source="B6GJMlLM4s9sf8NHCPqx-19" target="B6GJMlLM4s9sf8NHCPqx-21">
          <mxGeometry relative="1" as="geometry" />
        </mxCell>
        <mxCell id="B6GJMlLM4s9sf8NHCPqx-19" value="getline(cin, str);" style="whiteSpace=wrap;html=1;" vertex="1" parent="1">
          <mxGeometry x="340" y="500" width="120" height="40" as="geometry" />
        </mxCell>
        <mxCell id="B6GJMlLM4s9sf8NHCPqx-20" value="" style="edgeStyle=orthogonalEdgeStyle;rounded=0;orthogonalLoop=1;jettySize=auto;html=1;" edge="1" parent="1" source="B6GJMlLM4s9sf8NHCPqx-21" target="B6GJMlLM4s9sf8NHCPqx-23">
          <mxGeometry relative="1" as="geometry" />
        </mxCell>
        <mxCell id="B6GJMlLM4s9sf8NHCPqx-21" value="cout &amp;lt;&amp;lt; &quot;Введите образ: &quot;;" style="shape=parallelogram;perimeter=parallelogramPerimeter;whiteSpace=wrap;html=1;fixedSize=1;" vertex="1" parent="1">
          <mxGeometry x="310" y="560" width="180" height="40" as="geometry" />
        </mxCell>
        <mxCell id="B6GJMlLM4s9sf8NHCPqx-22" value="" style="edgeStyle=orthogonalEdgeStyle;rounded=0;orthogonalLoop=1;jettySize=auto;html=1;" edge="1" parent="1" source="B6GJMlLM4s9sf8NHCPqx-23" target="B6GJMlLM4s9sf8NHCPqx-25">
          <mxGeometry relative="1" as="geometry" />
        </mxCell>
        <mxCell id="B6GJMlLM4s9sf8NHCPqx-23" value="getline(cin, obraz);" style="whiteSpace=wrap;html=1;" vertex="1" parent="1">
          <mxGeometry x="340" y="620" width="120" height="40" as="geometry" />
        </mxCell>
        <mxCell id="B6GJMlLM4s9sf8NHCPqx-24" value="" style="edgeStyle=orthogonalEdgeStyle;rounded=0;orthogonalLoop=1;jettySize=auto;html=1;" edge="1" parent="1" source="B6GJMlLM4s9sf8NHCPqx-25" target="B6GJMlLM4s9sf8NHCPqx-27">
          <mxGeometry relative="1" as="geometry" />
        </mxCell>
        <mxCell id="B6GJMlLM4s9sf8NHCPqx-25" value="int* table = build_table(obraz);" style="whiteSpace=wrap;html=1;" vertex="1" parent="1">
          <mxGeometry x="315" y="680" width="170" height="40" as="geometry" />
        </mxCell>
        <mxCell id="B6GJMlLM4s9sf8NHCPqx-31" value="" style="edgeStyle=orthogonalEdgeStyle;rounded=0;orthogonalLoop=1;jettySize=auto;html=1;" edge="1" parent="1" source="B6GJMlLM4s9sf8NHCPqx-27" target="B6GJMlLM4s9sf8NHCPqx-30">
          <mxGeometry relative="1" as="geometry" />
        </mxCell>
        <mxCell id="B6GJMlLM4s9sf8NHCPqx-27" value="int ind = KMP_search(str, obraz, table);" style="whiteSpace=wrap;html=1;" vertex="1" parent="1">
          <mxGeometry x="287.5" y="740" width="225" height="40" as="geometry" />
        </mxCell>
        <mxCell id="B6GJMlLM4s9sf8NHCPqx-28" value="return 0;" style="ellipse;whiteSpace=wrap;html=1;" vertex="1" parent="1">
          <mxGeometry x="340" y="920" width="120" height="40" as="geometry" />
        </mxCell>
        <mxCell id="B6GJMlLM4s9sf8NHCPqx-29" value="}" style="text;html=1;align=center;verticalAlign=middle;resizable=0;points=[];autosize=1;strokeColor=none;fillColor=none;" vertex="1" parent="1">
          <mxGeometry x="399" y="960" width="30" height="30" as="geometry" />
        </mxCell>
        <mxCell id="B6GJMlLM4s9sf8NHCPqx-35" value="" style="edgeStyle=orthogonalEdgeStyle;rounded=0;orthogonalLoop=1;jettySize=auto;html=1;" edge="1" parent="1" source="B6GJMlLM4s9sf8NHCPqx-30" target="B6GJMlLM4s9sf8NHCPqx-34">
          <mxGeometry relative="1" as="geometry" />
        </mxCell>
        <mxCell id="B6GJMlLM4s9sf8NHCPqx-30" value="delete[] table;" style="whiteSpace=wrap;html=1;" vertex="1" parent="1">
          <mxGeometry x="340" y="800" width="120" height="40" as="geometry" />
        </mxCell>
        <mxCell id="B6GJMlLM4s9sf8NHCPqx-36" style="edgeStyle=orthogonalEdgeStyle;rounded=0;orthogonalLoop=1;jettySize=auto;html=1;entryX=0.5;entryY=0;entryDx=0;entryDy=0;" edge="1" parent="1" source="B6GJMlLM4s9sf8NHCPqx-34" target="B6GJMlLM4s9sf8NHCPqx-28">
          <mxGeometry relative="1" as="geometry" />
        </mxCell>
        <mxCell id="B6GJMlLM4s9sf8NHCPqx-34" value="cout &amp;lt;&amp;lt; ind &amp;lt;&amp;lt; endl;" style="shape=parallelogram;perimeter=parallelogramPerimeter;whiteSpace=wrap;html=1;fixedSize=1;" vertex="1" parent="1">
          <mxGeometry x="330" y="860" width="140" height="40" as="geometry" />
        </mxCell>
      </root>
    </mxGraphModel>
  </diagram>
  <diagram id="B_tqc34gvIMwEj1__bjT" name="build_table">
    <mxGraphModel dx="1613" dy="896" grid="1" gridSize="10" guides="1" tooltips="1" connect="1" arrows="1" fold="1" page="1" pageScale="1" pageWidth="827" pageHeight="1169" math="0" shadow="0">
      <root>
        <mxCell id="0" />
        <mxCell id="1" parent="0" />
        <mxCell id="Mpwm9PMHr2N7HYo2Txoh-4" value="" style="edgeStyle=orthogonalEdgeStyle;rounded=0;orthogonalLoop=1;jettySize=auto;html=1;" edge="1" parent="1" source="Mpwm9PMHr2N7HYo2Txoh-2" target="Mpwm9PMHr2N7HYo2Txoh-3">
          <mxGeometry relative="1" as="geometry" />
        </mxCell>
        <mxCell id="Mpwm9PMHr2N7HYo2Txoh-2" value="int* build_table(string obraz)" style="shape=process;whiteSpace=wrap;html=1;backgroundOutline=1;size=0.05263157894736842;" vertex="1" parent="1">
          <mxGeometry x="310" y="40" width="180" height="40" as="geometry" />
        </mxCell>
        <mxCell id="Mpwm9PMHr2N7HYo2Txoh-7" value="" style="edgeStyle=orthogonalEdgeStyle;rounded=0;orthogonalLoop=1;jettySize=auto;html=1;" edge="1" parent="1" source="Mpwm9PMHr2N7HYo2Txoh-3" target="Mpwm9PMHr2N7HYo2Txoh-6">
          <mxGeometry relative="1" as="geometry" />
        </mxCell>
        <mxCell id="Mpwm9PMHr2N7HYo2Txoh-3" value="int* table = new int[obraz.length()] {};" style="whiteSpace=wrap;html=1;" vertex="1" parent="1">
          <mxGeometry x="300" y="120" width="200" height="40" as="geometry" />
        </mxCell>
        <mxCell id="Mpwm9PMHr2N7HYo2Txoh-5" value="{" style="text;html=1;align=center;verticalAlign=middle;resizable=0;points=[];autosize=1;strokeColor=none;fillColor=none;" vertex="1" parent="1">
          <mxGeometry x="370" y="80" width="30" height="30" as="geometry" />
        </mxCell>
        <mxCell id="Mpwm9PMHr2N7HYo2Txoh-9" value="" style="edgeStyle=orthogonalEdgeStyle;rounded=0;orthogonalLoop=1;jettySize=auto;html=1;" edge="1" parent="1" source="Mpwm9PMHr2N7HYo2Txoh-6" target="Mpwm9PMHr2N7HYo2Txoh-8">
          <mxGeometry relative="1" as="geometry" />
        </mxCell>
        <mxCell id="Mpwm9PMHr2N7HYo2Txoh-6" value="int j = 0, i = 1;" style="whiteSpace=wrap;html=1;" vertex="1" parent="1">
          <mxGeometry x="340" y="180" width="120" height="40" as="geometry" />
        </mxCell>
        <mxCell id="Mpwm9PMHr2N7HYo2Txoh-13" value="" style="edgeStyle=orthogonalEdgeStyle;rounded=0;orthogonalLoop=1;jettySize=auto;html=1;" edge="1" parent="1" source="Mpwm9PMHr2N7HYo2Txoh-8" target="Mpwm9PMHr2N7HYo2Txoh-12">
          <mxGeometry relative="1" as="geometry" />
        </mxCell>
        <mxCell id="rk4OSZv1v2mqS5GSK8d5-2" style="edgeStyle=orthogonalEdgeStyle;rounded=0;orthogonalLoop=1;jettySize=auto;html=1;entryX=0.5;entryY=0;entryDx=0;entryDy=0;" edge="1" parent="1" source="Mpwm9PMHr2N7HYo2Txoh-8" target="rk4OSZv1v2mqS5GSK8d5-1">
          <mxGeometry relative="1" as="geometry" />
        </mxCell>
        <mxCell id="Mpwm9PMHr2N7HYo2Txoh-8" value="while (i &amp;lt; obraz.length())" style="rhombus;whiteSpace=wrap;html=1;" vertex="1" parent="1">
          <mxGeometry x="305" y="260" width="190" height="40" as="geometry" />
        </mxCell>
        <mxCell id="Mpwm9PMHr2N7HYo2Txoh-16" value="" style="edgeStyle=orthogonalEdgeStyle;rounded=0;orthogonalLoop=1;jettySize=auto;html=1;" edge="1" parent="1" source="Mpwm9PMHr2N7HYo2Txoh-12" target="Mpwm9PMHr2N7HYo2Txoh-15">
          <mxGeometry relative="1" as="geometry" />
        </mxCell>
        <mxCell id="Mpwm9PMHr2N7HYo2Txoh-23" value="" style="edgeStyle=orthogonalEdgeStyle;rounded=0;orthogonalLoop=1;jettySize=auto;html=1;" edge="1" parent="1" source="Mpwm9PMHr2N7HYo2Txoh-12" target="Mpwm9PMHr2N7HYo2Txoh-22">
          <mxGeometry relative="1" as="geometry">
            <Array as="points">
              <mxPoint x="640" y="360" />
            </Array>
          </mxGeometry>
        </mxCell>
        <mxCell id="Mpwm9PMHr2N7HYo2Txoh-12" value="if (obraz[j] == obraz[i])" style="rhombus;whiteSpace=wrap;html=1;" vertex="1" parent="1">
          <mxGeometry x="305" y="340" width="190" height="40" as="geometry" />
        </mxCell>
        <mxCell id="Mpwm9PMHr2N7HYo2Txoh-14" value="1" style="text;html=1;align=center;verticalAlign=middle;resizable=0;points=[];autosize=1;strokeColor=none;fillColor=none;" vertex="1" parent="1">
          <mxGeometry x="400" y="310" width="30" height="30" as="geometry" />
        </mxCell>
        <mxCell id="Mpwm9PMHr2N7HYo2Txoh-18" value="" style="edgeStyle=orthogonalEdgeStyle;rounded=0;orthogonalLoop=1;jettySize=auto;html=1;" edge="1" parent="1" source="Mpwm9PMHr2N7HYo2Txoh-15" target="Mpwm9PMHr2N7HYo2Txoh-17">
          <mxGeometry relative="1" as="geometry" />
        </mxCell>
        <mxCell id="Mpwm9PMHr2N7HYo2Txoh-15" value="table[i] = j + 1;" style="whiteSpace=wrap;html=1;" vertex="1" parent="1">
          <mxGeometry x="140" y="400" width="120" height="40" as="geometry" />
        </mxCell>
        <mxCell id="Mpwm9PMHr2N7HYo2Txoh-20" value="" style="edgeStyle=orthogonalEdgeStyle;rounded=0;orthogonalLoop=1;jettySize=auto;html=1;" edge="1" parent="1" source="Mpwm9PMHr2N7HYo2Txoh-17" target="Mpwm9PMHr2N7HYo2Txoh-19">
          <mxGeometry relative="1" as="geometry" />
        </mxCell>
        <mxCell id="Mpwm9PMHr2N7HYo2Txoh-17" value="i++;" style="whiteSpace=wrap;html=1;" vertex="1" parent="1">
          <mxGeometry x="140" y="460" width="120" height="40" as="geometry" />
        </mxCell>
        <mxCell id="Mpwm9PMHr2N7HYo2Txoh-37" style="edgeStyle=orthogonalEdgeStyle;rounded=0;orthogonalLoop=1;jettySize=auto;html=1;" edge="1" parent="1" source="Mpwm9PMHr2N7HYo2Txoh-19">
          <mxGeometry relative="1" as="geometry">
            <mxPoint x="400" y="640" as="targetPoint" />
            <Array as="points">
              <mxPoint x="200" y="640" />
            </Array>
          </mxGeometry>
        </mxCell>
        <mxCell id="Mpwm9PMHr2N7HYo2Txoh-19" value="j++;" style="whiteSpace=wrap;html=1;" vertex="1" parent="1">
          <mxGeometry x="140" y="520" width="120" height="40" as="geometry" />
        </mxCell>
        <mxCell id="Mpwm9PMHr2N7HYo2Txoh-21" value="1" style="text;html=1;align=center;verticalAlign=middle;resizable=0;points=[];autosize=1;strokeColor=none;fillColor=none;" vertex="1" parent="1">
          <mxGeometry x="200" y="328" width="30" height="30" as="geometry" />
        </mxCell>
        <mxCell id="Mpwm9PMHr2N7HYo2Txoh-26" value="" style="edgeStyle=orthogonalEdgeStyle;rounded=0;orthogonalLoop=1;jettySize=auto;html=1;exitX=0;exitY=0.5;exitDx=0;exitDy=0;" edge="1" parent="1" source="Mpwm9PMHr2N7HYo2Txoh-22" target="Mpwm9PMHr2N7HYo2Txoh-25">
          <mxGeometry relative="1" as="geometry" />
        </mxCell>
        <mxCell id="Mpwm9PMHr2N7HYo2Txoh-30" value="" style="edgeStyle=orthogonalEdgeStyle;rounded=0;orthogonalLoop=1;jettySize=auto;html=1;" edge="1" parent="1" source="Mpwm9PMHr2N7HYo2Txoh-22" target="Mpwm9PMHr2N7HYo2Txoh-29">
          <mxGeometry relative="1" as="geometry">
            <Array as="points">
              <mxPoint x="760" y="420" />
            </Array>
          </mxGeometry>
        </mxCell>
        <mxCell id="Mpwm9PMHr2N7HYo2Txoh-22" value="if (j == 0)" style="rhombus;whiteSpace=wrap;html=1;" vertex="1" parent="1">
          <mxGeometry x="570" y="400" width="140" height="40" as="geometry" />
        </mxCell>
        <mxCell id="Mpwm9PMHr2N7HYo2Txoh-24" value="{" style="text;html=1;align=center;verticalAlign=middle;resizable=0;points=[];autosize=1;strokeColor=none;fillColor=none;" vertex="1" parent="1">
          <mxGeometry x="175" y="358" width="30" height="30" as="geometry" />
        </mxCell>
        <mxCell id="Mpwm9PMHr2N7HYo2Txoh-28" value="" style="edgeStyle=orthogonalEdgeStyle;rounded=0;orthogonalLoop=1;jettySize=auto;html=1;" edge="1" parent="1" source="Mpwm9PMHr2N7HYo2Txoh-25" target="Mpwm9PMHr2N7HYo2Txoh-27">
          <mxGeometry relative="1" as="geometry" />
        </mxCell>
        <mxCell id="Mpwm9PMHr2N7HYo2Txoh-25" value="table[i] = 0;" style="whiteSpace=wrap;html=1;" vertex="1" parent="1">
          <mxGeometry x="460" y="460" width="120" height="40" as="geometry" />
        </mxCell>
        <mxCell id="Mpwm9PMHr2N7HYo2Txoh-31" style="edgeStyle=orthogonalEdgeStyle;rounded=0;orthogonalLoop=1;jettySize=auto;html=1;" edge="1" parent="1" source="Mpwm9PMHr2N7HYo2Txoh-27">
          <mxGeometry relative="1" as="geometry">
            <mxPoint x="640" y="600" as="targetPoint" />
            <Array as="points">
              <mxPoint x="520" y="600" />
            </Array>
          </mxGeometry>
        </mxCell>
        <mxCell id="Mpwm9PMHr2N7HYo2Txoh-27" value="i++;" style="whiteSpace=wrap;html=1;" vertex="1" parent="1">
          <mxGeometry x="460" y="520" width="120" height="40" as="geometry" />
        </mxCell>
        <mxCell id="Mpwm9PMHr2N7HYo2Txoh-36" style="edgeStyle=orthogonalEdgeStyle;rounded=0;orthogonalLoop=1;jettySize=auto;html=1;" edge="1" parent="1" source="Mpwm9PMHr2N7HYo2Txoh-29">
          <mxGeometry relative="1" as="geometry">
            <mxPoint x="640" y="600" as="targetPoint" />
            <Array as="points">
              <mxPoint x="760" y="600" />
            </Array>
          </mxGeometry>
        </mxCell>
        <mxCell id="Mpwm9PMHr2N7HYo2Txoh-29" value="j = table[j - 1];" style="whiteSpace=wrap;html=1;" vertex="1" parent="1">
          <mxGeometry x="700" y="460" width="120" height="40" as="geometry" />
        </mxCell>
        <mxCell id="Mpwm9PMHr2N7HYo2Txoh-32" value="1" style="text;html=1;align=center;verticalAlign=middle;resizable=0;points=[];autosize=1;strokeColor=none;fillColor=none;" vertex="1" parent="1">
          <mxGeometry x="515" y="398" width="30" height="30" as="geometry" />
        </mxCell>
        <mxCell id="Mpwm9PMHr2N7HYo2Txoh-33" value="0" style="text;html=1;align=center;verticalAlign=middle;resizable=0;points=[];autosize=1;strokeColor=none;fillColor=none;" vertex="1" parent="1">
          <mxGeometry x="735" y="398" width="30" height="30" as="geometry" />
        </mxCell>
        <mxCell id="Mpwm9PMHr2N7HYo2Txoh-34" value="{" style="text;html=1;align=center;verticalAlign=middle;resizable=0;points=[];autosize=1;strokeColor=none;fillColor=none;" vertex="1" parent="1">
          <mxGeometry x="495" y="420" width="30" height="30" as="geometry" />
        </mxCell>
        <mxCell id="Mpwm9PMHr2N7HYo2Txoh-35" value="}" style="text;html=1;align=center;verticalAlign=middle;resizable=0;points=[];autosize=1;strokeColor=none;fillColor=none;" vertex="1" parent="1">
          <mxGeometry x="515" y="560" width="30" height="30" as="geometry" />
        </mxCell>
        <mxCell id="Mpwm9PMHr2N7HYo2Txoh-38" value="" style="endArrow=classic;html=1;rounded=0;" edge="1" parent="1">
          <mxGeometry width="50" height="50" relative="1" as="geometry">
            <mxPoint x="640" y="600" as="sourcePoint" />
            <mxPoint x="400" y="640" as="targetPoint" />
            <Array as="points">
              <mxPoint x="640" y="640" />
            </Array>
          </mxGeometry>
        </mxCell>
        <mxCell id="Mpwm9PMHr2N7HYo2Txoh-39" value="" style="endArrow=classic;html=1;rounded=0;" edge="1" parent="1">
          <mxGeometry width="50" height="50" relative="1" as="geometry">
            <mxPoint x="400" y="640" as="sourcePoint" />
            <mxPoint x="400" y="240" as="targetPoint" />
            <Array as="points">
              <mxPoint x="400" y="660" />
              <mxPoint x="100" y="660" />
              <mxPoint x="100" y="450" />
              <mxPoint x="100" y="240" />
            </Array>
          </mxGeometry>
        </mxCell>
        <mxCell id="Mpwm9PMHr2N7HYo2Txoh-40" value="}" style="text;html=1;align=center;verticalAlign=middle;resizable=0;points=[];autosize=1;strokeColor=none;fillColor=none;" vertex="1" parent="1">
          <mxGeometry x="195" y="558" width="30" height="30" as="geometry" />
        </mxCell>
        <mxCell id="Mpwm9PMHr2N7HYo2Txoh-41" value="0" style="text;html=1;align=center;verticalAlign=middle;resizable=0;points=[];autosize=1;strokeColor=none;fillColor=none;" vertex="1" parent="1">
          <mxGeometry x="615" y="338" width="30" height="30" as="geometry" />
        </mxCell>
        <mxCell id="rk4OSZv1v2mqS5GSK8d5-1" value="return table;" style="ellipse;whiteSpace=wrap;html=1;" vertex="1" parent="1">
          <mxGeometry x="680" y="300" width="120" height="40" as="geometry" />
        </mxCell>
        <mxCell id="rk4OSZv1v2mqS5GSK8d5-3" value="}" style="text;html=1;align=center;verticalAlign=middle;resizable=0;points=[];autosize=1;strokeColor=none;fillColor=none;" vertex="1" parent="1">
          <mxGeometry x="735" y="338" width="30" height="30" as="geometry" />
        </mxCell>
        <mxCell id="rk4OSZv1v2mqS5GSK8d5-4" value="0" style="text;html=1;align=center;verticalAlign=middle;resizable=0;points=[];autosize=1;strokeColor=none;fillColor=none;" vertex="1" parent="1">
          <mxGeometry x="715" y="258" width="30" height="30" as="geometry" />
        </mxCell>
      </root>
    </mxGraphModel>
  </diagram>
  <diagram id="UiQL5f2IlTZ6C8LY8VyT" name="KMP_search">
    <mxGraphModel dx="2812" dy="1103" grid="1" gridSize="10" guides="1" tooltips="1" connect="1" arrows="1" fold="1" page="1" pageScale="1" pageWidth="827" pageHeight="1169" math="0" shadow="0">
      <root>
        <mxCell id="0" />
        <mxCell id="1" parent="0" />
        <mxCell id="l55PyPrUBIy3urybR12D-3" value="" style="edgeStyle=orthogonalEdgeStyle;rounded=0;orthogonalLoop=1;jettySize=auto;html=1;" edge="1" parent="1" source="l55PyPrUBIy3urybR12D-1" target="l55PyPrUBIy3urybR12D-2">
          <mxGeometry relative="1" as="geometry" />
        </mxCell>
        <mxCell id="l55PyPrUBIy3urybR12D-1" value="int KMP_search(string str, string obraz, int* table)" style="shape=process;whiteSpace=wrap;html=1;backgroundOutline=1;size=0.034482758620689655;" vertex="1" parent="1">
          <mxGeometry x="250" y="40" width="300" height="40" as="geometry" />
        </mxCell>
        <mxCell id="l55PyPrUBIy3urybR12D-6" value="" style="edgeStyle=orthogonalEdgeStyle;rounded=0;orthogonalLoop=1;jettySize=auto;html=1;" edge="1" parent="1" source="l55PyPrUBIy3urybR12D-2" target="l55PyPrUBIy3urybR12D-5">
          <mxGeometry relative="1" as="geometry" />
        </mxCell>
        <mxCell id="l55PyPrUBIy3urybR12D-2" value="int k = 0, l = 0;" style="whiteSpace=wrap;html=1;" vertex="1" parent="1">
          <mxGeometry x="340" y="120" width="120" height="40" as="geometry" />
        </mxCell>
        <mxCell id="l55PyPrUBIy3urybR12D-4" value="{" style="text;html=1;align=center;verticalAlign=middle;resizable=0;points=[];autosize=1;strokeColor=none;fillColor=none;" vertex="1" parent="1">
          <mxGeometry x="370" y="80" width="30" height="30" as="geometry" />
        </mxCell>
        <mxCell id="1oA2tvBGzxrc4O0bQGeC-27" style="edgeStyle=orthogonalEdgeStyle;rounded=0;orthogonalLoop=1;jettySize=auto;html=1;entryX=0.5;entryY=0;entryDx=0;entryDy=0;" edge="1" parent="1" source="l55PyPrUBIy3urybR12D-5" target="1oA2tvBGzxrc4O0bQGeC-3">
          <mxGeometry relative="1" as="geometry" />
        </mxCell>
        <mxCell id="Zm4YyeuKAivi2g3zKh7z-2" style="edgeStyle=orthogonalEdgeStyle;rounded=0;orthogonalLoop=1;jettySize=auto;html=1;entryX=0.5;entryY=0;entryDx=0;entryDy=0;" edge="1" parent="1" source="l55PyPrUBIy3urybR12D-5" target="Zm4YyeuKAivi2g3zKh7z-1">
          <mxGeometry relative="1" as="geometry" />
        </mxCell>
        <mxCell id="l55PyPrUBIy3urybR12D-5" value="while (k &amp;lt; str.length())" style="rhombus;whiteSpace=wrap;html=1;" vertex="1" parent="1">
          <mxGeometry x="310" y="200" width="180" height="40" as="geometry" />
        </mxCell>
        <mxCell id="1oA2tvBGzxrc4O0bQGeC-1" value="" style="edgeStyle=orthogonalEdgeStyle;rounded=0;orthogonalLoop=1;jettySize=auto;html=1;" edge="1" parent="1" source="1oA2tvBGzxrc4O0bQGeC-3" target="1oA2tvBGzxrc4O0bQGeC-5">
          <mxGeometry relative="1" as="geometry" />
        </mxCell>
        <mxCell id="1oA2tvBGzxrc4O0bQGeC-2" value="" style="edgeStyle=orthogonalEdgeStyle;rounded=0;orthogonalLoop=1;jettySize=auto;html=1;" edge="1" parent="1" source="1oA2tvBGzxrc4O0bQGeC-3" target="1oA2tvBGzxrc4O0bQGeC-12">
          <mxGeometry relative="1" as="geometry">
            <Array as="points">
              <mxPoint x="640" y="302" />
            </Array>
          </mxGeometry>
        </mxCell>
        <mxCell id="1oA2tvBGzxrc4O0bQGeC-3" value="if (str[k] == obraz[l])" style="rhombus;whiteSpace=wrap;html=1;" vertex="1" parent="1">
          <mxGeometry x="305" y="282" width="190" height="40" as="geometry" />
        </mxCell>
        <mxCell id="1oA2tvBGzxrc4O0bQGeC-4" value="" style="edgeStyle=orthogonalEdgeStyle;rounded=0;orthogonalLoop=1;jettySize=auto;html=1;" edge="1" parent="1" source="1oA2tvBGzxrc4O0bQGeC-5" target="1oA2tvBGzxrc4O0bQGeC-7">
          <mxGeometry relative="1" as="geometry" />
        </mxCell>
        <mxCell id="1oA2tvBGzxrc4O0bQGeC-5" value="k++;" style="whiteSpace=wrap;html=1;" vertex="1" parent="1">
          <mxGeometry x="140" y="342" width="120" height="40" as="geometry" />
        </mxCell>
        <mxCell id="1oA2tvBGzxrc4O0bQGeC-30" value="" style="edgeStyle=orthogonalEdgeStyle;rounded=0;orthogonalLoop=1;jettySize=auto;html=1;" edge="1" parent="1" source="1oA2tvBGzxrc4O0bQGeC-7" target="1oA2tvBGzxrc4O0bQGeC-29">
          <mxGeometry relative="1" as="geometry" />
        </mxCell>
        <mxCell id="1oA2tvBGzxrc4O0bQGeC-7" value="l++;" style="whiteSpace=wrap;html=1;" vertex="1" parent="1">
          <mxGeometry x="140" y="402" width="120" height="40" as="geometry" />
        </mxCell>
        <mxCell id="1oA2tvBGzxrc4O0bQGeC-9" value="1" style="text;html=1;align=center;verticalAlign=middle;resizable=0;points=[];autosize=1;strokeColor=none;fillColor=none;" vertex="1" parent="1">
          <mxGeometry x="200" y="270" width="30" height="30" as="geometry" />
        </mxCell>
        <mxCell id="1oA2tvBGzxrc4O0bQGeC-10" value="" style="edgeStyle=orthogonalEdgeStyle;rounded=0;orthogonalLoop=1;jettySize=auto;html=1;exitX=0;exitY=0.5;exitDx=0;exitDy=0;" edge="1" parent="1" source="1oA2tvBGzxrc4O0bQGeC-12" target="1oA2tvBGzxrc4O0bQGeC-15">
          <mxGeometry relative="1" as="geometry" />
        </mxCell>
        <mxCell id="1oA2tvBGzxrc4O0bQGeC-11" value="" style="edgeStyle=orthogonalEdgeStyle;rounded=0;orthogonalLoop=1;jettySize=auto;html=1;" edge="1" parent="1" source="1oA2tvBGzxrc4O0bQGeC-12" target="1oA2tvBGzxrc4O0bQGeC-19">
          <mxGeometry relative="1" as="geometry">
            <Array as="points">
              <mxPoint x="760" y="362" />
            </Array>
          </mxGeometry>
        </mxCell>
        <mxCell id="1oA2tvBGzxrc4O0bQGeC-12" value="if (l == 0)" style="rhombus;whiteSpace=wrap;html=1;" vertex="1" parent="1">
          <mxGeometry x="570" y="342" width="140" height="40" as="geometry" />
        </mxCell>
        <mxCell id="1oA2tvBGzxrc4O0bQGeC-13" value="{" style="text;html=1;align=center;verticalAlign=middle;resizable=0;points=[];autosize=1;strokeColor=none;fillColor=none;" vertex="1" parent="1">
          <mxGeometry x="175" y="300" width="30" height="30" as="geometry" />
        </mxCell>
        <mxCell id="-N1d7Vhz9R2w4OXryk5L-15" style="edgeStyle=orthogonalEdgeStyle;rounded=0;orthogonalLoop=1;jettySize=auto;html=1;entryX=0.5;entryY=0;entryDx=0;entryDy=0;" edge="1" parent="1" source="1oA2tvBGzxrc4O0bQGeC-15" target="-N1d7Vhz9R2w4OXryk5L-10">
          <mxGeometry relative="1" as="geometry" />
        </mxCell>
        <mxCell id="1oA2tvBGzxrc4O0bQGeC-15" value="k++;" style="whiteSpace=wrap;html=1;" vertex="1" parent="1">
          <mxGeometry x="460" y="402" width="120" height="40" as="geometry" />
        </mxCell>
        <mxCell id="EUTt3JZF-Rmp4cIFazjz-6" style="edgeStyle=orthogonalEdgeStyle;rounded=0;orthogonalLoop=1;jettySize=auto;html=1;" edge="1" parent="1" source="1oA2tvBGzxrc4O0bQGeC-19">
          <mxGeometry relative="1" as="geometry">
            <mxPoint x="640" y="620" as="targetPoint" />
            <Array as="points">
              <mxPoint x="760" y="620" />
            </Array>
          </mxGeometry>
        </mxCell>
        <mxCell id="1oA2tvBGzxrc4O0bQGeC-19" value="l = table[l - 1];" style="whiteSpace=wrap;html=1;" vertex="1" parent="1">
          <mxGeometry x="700" y="402" width="120" height="40" as="geometry" />
        </mxCell>
        <mxCell id="1oA2tvBGzxrc4O0bQGeC-20" value="1" style="text;html=1;align=center;verticalAlign=middle;resizable=0;points=[];autosize=1;strokeColor=none;fillColor=none;" vertex="1" parent="1">
          <mxGeometry x="515" y="340" width="30" height="30" as="geometry" />
        </mxCell>
        <mxCell id="1oA2tvBGzxrc4O0bQGeC-21" value="0" style="text;html=1;align=center;verticalAlign=middle;resizable=0;points=[];autosize=1;strokeColor=none;fillColor=none;" vertex="1" parent="1">
          <mxGeometry x="735" y="340" width="30" height="30" as="geometry" />
        </mxCell>
        <mxCell id="1oA2tvBGzxrc4O0bQGeC-22" value="{" style="text;html=1;align=center;verticalAlign=middle;resizable=0;points=[];autosize=1;strokeColor=none;fillColor=none;" vertex="1" parent="1">
          <mxGeometry x="495" y="362" width="30" height="30" as="geometry" />
        </mxCell>
        <mxCell id="1oA2tvBGzxrc4O0bQGeC-25" value="0" style="text;html=1;align=center;verticalAlign=middle;resizable=0;points=[];autosize=1;strokeColor=none;fillColor=none;" vertex="1" parent="1">
          <mxGeometry x="615" y="280" width="30" height="30" as="geometry" />
        </mxCell>
        <mxCell id="1oA2tvBGzxrc4O0bQGeC-28" value="1" style="text;html=1;align=center;verticalAlign=middle;resizable=0;points=[];autosize=1;strokeColor=none;fillColor=none;" vertex="1" parent="1">
          <mxGeometry x="399" y="250" width="30" height="30" as="geometry" />
        </mxCell>
        <mxCell id="-N1d7Vhz9R2w4OXryk5L-3" style="edgeStyle=orthogonalEdgeStyle;rounded=0;orthogonalLoop=1;jettySize=auto;html=1;entryX=0.5;entryY=0;entryDx=0;entryDy=0;" edge="1" parent="1" source="1oA2tvBGzxrc4O0bQGeC-29" target="-N1d7Vhz9R2w4OXryk5L-1">
          <mxGeometry relative="1" as="geometry">
            <Array as="points">
              <mxPoint x="80" y="480" />
            </Array>
          </mxGeometry>
        </mxCell>
        <mxCell id="-N1d7Vhz9R2w4OXryk5L-6" style="edgeStyle=orthogonalEdgeStyle;rounded=0;orthogonalLoop=1;jettySize=auto;html=1;" edge="1" parent="1" source="1oA2tvBGzxrc4O0bQGeC-29">
          <mxGeometry relative="1" as="geometry">
            <mxPoint x="200" y="580" as="targetPoint" />
            <Array as="points">
              <mxPoint x="310" y="481" />
              <mxPoint x="310" y="580" />
            </Array>
          </mxGeometry>
        </mxCell>
        <mxCell id="1oA2tvBGzxrc4O0bQGeC-29" value="if (l == obraz.length())" style="rhombus;whiteSpace=wrap;html=1;" vertex="1" parent="1">
          <mxGeometry x="110" y="462" width="180" height="38" as="geometry" />
        </mxCell>
        <mxCell id="-N1d7Vhz9R2w4OXryk5L-5" style="edgeStyle=orthogonalEdgeStyle;rounded=0;orthogonalLoop=1;jettySize=auto;html=1;" edge="1" parent="1" source="-N1d7Vhz9R2w4OXryk5L-1">
          <mxGeometry relative="1" as="geometry">
            <mxPoint x="200" y="580" as="targetPoint" />
            <Array as="points">
              <mxPoint x="80" y="580" />
            </Array>
          </mxGeometry>
        </mxCell>
        <mxCell id="-N1d7Vhz9R2w4OXryk5L-1" value="return k - obraz.length();" style="ellipse;whiteSpace=wrap;html=1;" vertex="1" parent="1">
          <mxGeometry x="10" y="520" width="140" height="40" as="geometry" />
        </mxCell>
        <mxCell id="-N1d7Vhz9R2w4OXryk5L-4" value="1" style="text;html=1;align=center;verticalAlign=middle;resizable=0;points=[];autosize=1;strokeColor=none;fillColor=none;" vertex="1" parent="1">
          <mxGeometry x="75" y="458" width="30" height="30" as="geometry" />
        </mxCell>
        <mxCell id="-N1d7Vhz9R2w4OXryk5L-7" value="0" style="text;html=1;align=center;verticalAlign=middle;resizable=0;points=[];autosize=1;strokeColor=none;fillColor=none;" vertex="1" parent="1">
          <mxGeometry x="285" y="458" width="30" height="30" as="geometry" />
        </mxCell>
        <mxCell id="-N1d7Vhz9R2w4OXryk5L-8" style="edgeStyle=orthogonalEdgeStyle;rounded=0;orthogonalLoop=1;jettySize=auto;html=1;entryX=0.5;entryY=0;entryDx=0;entryDy=0;" edge="1" parent="1" source="-N1d7Vhz9R2w4OXryk5L-10">
          <mxGeometry relative="1" as="geometry">
            <Array as="points">
              <mxPoint x="400" y="480" />
            </Array>
            <mxPoint x="400" y="520" as="targetPoint" />
          </mxGeometry>
        </mxCell>
        <mxCell id="-N1d7Vhz9R2w4OXryk5L-9" style="edgeStyle=orthogonalEdgeStyle;rounded=0;orthogonalLoop=1;jettySize=auto;html=1;" edge="1" parent="1" source="-N1d7Vhz9R2w4OXryk5L-10">
          <mxGeometry relative="1" as="geometry">
            <mxPoint x="520" y="580" as="targetPoint" />
            <Array as="points">
              <mxPoint x="630" y="481" />
              <mxPoint x="630" y="580" />
            </Array>
          </mxGeometry>
        </mxCell>
        <mxCell id="-N1d7Vhz9R2w4OXryk5L-10" value="if (k == str.length())" style="rhombus;whiteSpace=wrap;html=1;" vertex="1" parent="1">
          <mxGeometry x="430" y="462" width="180" height="38" as="geometry" />
        </mxCell>
        <mxCell id="-N1d7Vhz9R2w4OXryk5L-11" style="edgeStyle=orthogonalEdgeStyle;rounded=0;orthogonalLoop=1;jettySize=auto;html=1;" edge="1" parent="1">
          <mxGeometry relative="1" as="geometry">
            <mxPoint x="520" y="580" as="targetPoint" />
            <Array as="points">
              <mxPoint x="400" y="580" />
            </Array>
            <mxPoint x="400" y="560" as="sourcePoint" />
          </mxGeometry>
        </mxCell>
        <mxCell id="-N1d7Vhz9R2w4OXryk5L-13" value="1" style="text;html=1;align=center;verticalAlign=middle;resizable=0;points=[];autosize=1;strokeColor=none;fillColor=none;" vertex="1" parent="1">
          <mxGeometry x="395" y="458" width="30" height="30" as="geometry" />
        </mxCell>
        <mxCell id="-N1d7Vhz9R2w4OXryk5L-14" value="0" style="text;html=1;align=center;verticalAlign=middle;resizable=0;points=[];autosize=1;strokeColor=none;fillColor=none;" vertex="1" parent="1">
          <mxGeometry x="605" y="458" width="30" height="30" as="geometry" />
        </mxCell>
        <mxCell id="EUTt3JZF-Rmp4cIFazjz-1" value="return -1;" style="ellipse;whiteSpace=wrap;html=1;" vertex="1" parent="1">
          <mxGeometry x="340" y="520" width="120" height="40" as="geometry" />
        </mxCell>
        <mxCell id="EUTt3JZF-Rmp4cIFazjz-2" value="" style="endArrow=classic;html=1;rounded=0;" edge="1" parent="1">
          <mxGeometry width="50" height="50" relative="1" as="geometry">
            <mxPoint x="520" y="580" as="sourcePoint" />
            <mxPoint x="640" y="620" as="targetPoint" />
            <Array as="points">
              <mxPoint x="520" y="620" />
            </Array>
          </mxGeometry>
        </mxCell>
        <mxCell id="EUTt3JZF-Rmp4cIFazjz-3" value="}" style="text;html=1;align=center;verticalAlign=middle;resizable=0;points=[];autosize=1;strokeColor=none;fillColor=none;" vertex="1" parent="1">
          <mxGeometry x="515" y="578" width="30" height="30" as="geometry" />
        </mxCell>
        <mxCell id="EUTt3JZF-Rmp4cIFazjz-4" value="" style="endArrow=classic;html=1;rounded=0;" edge="1" parent="1">
          <mxGeometry width="50" height="50" relative="1" as="geometry">
            <mxPoint x="200" y="578" as="sourcePoint" />
            <mxPoint x="400" y="650" as="targetPoint" />
            <Array as="points">
              <mxPoint x="200" y="618" />
              <mxPoint x="200" y="650" />
              <mxPoint x="260" y="650" />
            </Array>
          </mxGeometry>
        </mxCell>
        <mxCell id="EUTt3JZF-Rmp4cIFazjz-5" value="}" style="text;html=1;align=center;verticalAlign=middle;resizable=0;points=[];autosize=1;strokeColor=none;fillColor=none;" vertex="1" parent="1">
          <mxGeometry x="200" y="578" width="30" height="30" as="geometry" />
        </mxCell>
        <mxCell id="EUTt3JZF-Rmp4cIFazjz-7" value="" style="endArrow=classic;html=1;rounded=0;" edge="1" parent="1">
          <mxGeometry width="50" height="50" relative="1" as="geometry">
            <mxPoint x="640" y="620" as="sourcePoint" />
            <mxPoint x="400" y="650" as="targetPoint" />
            <Array as="points">
              <mxPoint x="640" y="650" />
            </Array>
          </mxGeometry>
        </mxCell>
        <mxCell id="EUTt3JZF-Rmp4cIFazjz-9" value="" style="endArrow=classic;html=1;rounded=0;" edge="1" parent="1">
          <mxGeometry width="50" height="50" relative="1" as="geometry">
            <mxPoint x="400" y="650" as="sourcePoint" />
            <mxPoint x="400" y="180" as="targetPoint" />
            <Array as="points">
              <mxPoint x="400" y="680" />
              <mxPoint x="-10" y="680" />
              <mxPoint x="-10" y="570" />
              <mxPoint x="-10" y="180" />
            </Array>
          </mxGeometry>
        </mxCell>
        <mxCell id="Zm4YyeuKAivi2g3zKh7z-1" value="return;" style="ellipse;whiteSpace=wrap;html=1;" vertex="1" parent="1">
          <mxGeometry x="660" y="240" width="120" height="40" as="geometry" />
        </mxCell>
        <mxCell id="Zm4YyeuKAivi2g3zKh7z-3" value="0" style="text;html=1;align=center;verticalAlign=middle;resizable=0;points=[];autosize=1;strokeColor=none;fillColor=none;" vertex="1" parent="1">
          <mxGeometry x="695" y="200" width="30" height="30" as="geometry" />
        </mxCell>
        <mxCell id="Zm4YyeuKAivi2g3zKh7z-4" value="}" style="text;html=1;align=center;verticalAlign=middle;resizable=0;points=[];autosize=1;strokeColor=none;fillColor=none;" vertex="1" parent="1">
          <mxGeometry x="725" y="280" width="30" height="30" as="geometry" />
        </mxCell>
      </root>
    </mxGraphModel>
  </diagram>
</mxfile>
